<svg xmlns="http://www.w3.org/2000/svg" viewBox="0 0 1920 449.92"><path d="M187.67,310.26a217.35,217.35,0,0,0,22.05-48.12,180.48,180.48,0,0,0,7.84-67.35A189.92,189.92,0,0,0,199,127a254.54,254.54,0,0,0-34.38-52.6,336.16,336.16,0,0,0-35.79-36.23c-1.19-1-2.38-2.07-3.59-3.09-4.16-3.55-12.78-3.43-17,0-4.63,3.75-4.44,9,0,12.75q8.49,7.24,16.38,14.88l-1.84-1.85a285.81,285.81,0,0,1,38.13,45.1q5.4,8,10,16.22l-1.21-2.08a199.09,199.09,0,0,1,18.88,45.74c1.27,4.71,2.35,9.53,3.23,14.43l-.43-2.4a170.89,170.89,0,0,1,1.8,48q-.64,6.26-1.75,12.37l.43-2.4a190.81,190.81,0,0,1-16.77,50.54q-2.69,5.49-5.74,10.91l1.21-2.15c-1.16,2.07-2.35,4.13-3.59,6.17-1.37,2.25-2.13,4.5-1.21,6.94,1.76,4.78,8.37,7.6,14.76,6.28h0c2.79-.69,5.91-2.05,7.17-4.13Z" transform="translate(-0.28 -0.08)"/><text transform="translate(505.76 329.13) scale(1.83 1)" style="isolation:isolate;font-size:291.607177734375px;font-family:MonotypeCorsiva, Monotype Corsiva">’Margô</text><path d="M21.22,30.29q32.25-6,65.11-9.54l3.86-.41,1.92-.19c1.69-.18-1.58.15.11,0q4.09-.41,8.19-.75,8.16-.73,16.36-1.32,16-1.12,32.09-1.7,31.8-1.09,63.65.09,15.45.6,30.86,1.76,7.73.6,15.43,1.32l1.8.18.86.07c-1.39-.13.52,0,.85.11l1.79.18,7.6.84A657.29,657.29,0,0,1,384.28,43.45q3.27,1,6.54,2l1.52.48c-.32-.11-2-.65-.22-.08l3.4,1.11q6.19,2,12.29,4.2,12.39,4.41,24.31,9.44,11.49,4.84,22.49,10.3,5.33,2.66,10.52,5.43c1.76,1,3.52,1.92,5.26,2.89l2.44,1.4.45.25.75.44a271.45,271.45,0,0,1,42.56,30.53q2.35,2.1,4.64,4.25l1.13,1.06c.18.17,1.35,1.29.56.53l.54.52,1.33,1.33q4.41,4.5,8.47,9A175.42,175.42,0,0,1,547,146.31q3,4.35,5.63,8.86c.41.69.8,1.38,1.2,2.07.59,1-.73-1.35-.18-.33.18.34.38.69.56,1,.79,1.5,1.55,2.88,2.29,4.33a153.74,153.74,0,0,1,7.3,16.86,145,145,0,0,1,4.65,15.58c.57,2.39,1,4.79,1.51,7.18-.53-2.59-.12-.61,0,0l.3,1.88q.26,1.71.48,3.45a129,129,0,0,1,.86,23.18c-.15,2.75-.39,5.49-.74,8.19-.14,1.07-.29,2.12-.47,3.18-.14.84-.57,2.81.14-.7-.08.37-.14.75-.22,1.12A114,114,0,0,1,562,267.42q-1.82,4-3.9,7.88a7.48,7.48,0,0,0-1.16,2.11c0-.13,1-1.75.27-.49l-.53.93q-1.14,1.95-2.36,3.88a157.51,157.51,0,0,1-10.45,14.73q-5.73,7.17-12.32,13.93c-1,1.1-2.08,2.13-3.14,3.13-.25.26-.57.51-.79.75.11-.13,1.54-1.5.45-.43l-1.82,1.72q-3.35,3.21-6.85,6.21a285.37,285.37,0,0,1-30.61,22.93c-5.29,3.47-10.84,6.68-16.26,10,2.41-1.5.28-.16-.34.2l-2,1.12-4.46,2.48q-4.2,2.3-8.47,4.5-16.14,8.4-33.28,15.74-15.49,6.63-31.58,12.45-7.29,2.64-14.71,5.11-3.44,1.15-6.9,2.25c-1,.3-4.86,1.5-1,.32l-3.22,1Q349,405.36,331,409.81c-13.16,3.21-26.37,6.3-39.75,8.92-8.87,1.74-17.81,3.3-26.8,4.6q-7.2,1-14.45,1.88l-3.48.37c-.47,0-2.07.21.16,0l-1.76.18c-2.52.24-5,.45-7.55.65-10.15.78-20.36,1.14-30.57,1q-7.91,0-15.78-.59-3.72-.22-7.44-.57l-1.86-.18h0c-1.55-.18-3.09-.34-4.64-.55a215.25,215.25,0,0,1-30.62-6.13c-1.19-.35-2.39-.68-3.57-1.05l-1.58-.48c-1.44-.45,1.58.52.16,0-2.22-.75-4.46-1.5-6.65-2.3q-6.75-2.5-13.21-5.37T109,404c-1-.51-1.88-1.05-2.82-1.57,1.78,1-.85-.51-1.3-.78-1.88-1.16-3.73-2.34-5.52-3.56a98.94,98.94,0,0,1-9.72-7.49l-2-1.82c-.93-.85,1.07,1.13.24.23-.29-.32-.6-.6-.89-.92a51.66,51.66,0,0,1-3.38-3.93,29.63,29.63,0,0,1-2.54-3.75c.18-.1.89,1.76.16.24-.15-.31-.31-.63-.45-.94-.31-.68-.6-1.38-.86-2.1s-.4-1.23-.56-1.88c-.53-2.11,0,1.08-.06-.25,0-.62-.11-1.23-.12-1.86a8.11,8.11,0,0,0,.16-2.31c0,.12-.49,2-.13.7.09-.3.15-.6.24-.91.19-.63.41-1.23.65-1.82.36-.84,1.53-2,0-.24.52-.6.85-1.34,1.33-2,.77-1,1.94-2,2.64-3-.09.14-1.64,1.5-.5.53.28-.23.53-.47.81-.71q.93-.78,1.92-1.5c1.2-.9,2.46-1.74,3.77-2.55l1-.61c1-.66-1.71.91-.58.34.82-.4,1.59-.87,2.4-1.27a96.63,96.63,0,0,1,9.72-4.29c1.56-.6,3.15-1.19,4.75-1.73l2.38-.79c1.62-.54-.55.18-.73.22.59-.13,1.19-.37,1.76-.54,3.15-1,6.34-1.83,9.56-2.64,4.63-1.15,9.32-2.16,14-3.09,3-.6,6.08-1.14,9.15-1.59q2.44-.36,4.92-.66l2.48-.28a3.76,3.76,0,0,0,1.24-.14c-3.25.42-1,.11-.29,0a252.23,252.23,0,0,1,43.28,0c1.77.14,3.54.38,5.32.48-3.3-.21.09,0,.87.11l3,.34q5.73.7,11.41,1.5c7.61,1.17,15.16,2.58,22.64,4.16q23.23,5,45.57,12c.89.28,1.81.52,2.68.84l-.51-.17,1.33.44q2.85.9,5.65,1.84,5.64,1.88,11.21,3.82,11,3.84,21.68,8,40.29,15.66,78,34.62,27.8,13.92,54.27,29.24c1.7,1-1.68-1-.72-.42l1.08.63,2.07,1.22,3.75,2.2c2,1.17,4,2.37,6,3.56,4.28,2.58,10.73,3.37,14.85,0,3.5-2.85,4.58-8.37,0-11.13q-20.16-12.15-41.14-23.49-33.81-18-69.66-34.09a756.34,756.34,0,0,0-89.55-33.55c-30.21-9.08-61.82-15.92-94.34-18.1a243.78,243.78,0,0,0-80.19,7.71c-14.85,4.05-30.74,9.48-41.25,18.64-6,5.28-9.9,11.25-10.79,18.24-.86,6.63,1.92,13.33,6,19.15,9.09,13.17,25.79,23.35,42.14,31.21A212.6,212.6,0,0,0,166,440c41.36,6.33,84.25,2.65,124.85-4.89q29.49-5.52,58.13-13.26,26.58-7.15,52.06-16.3A541.93,541.93,0,0,0,467.15,377c24.35-12.58,47.25-27,66.69-43.74,20.78-17.91,37.53-38.25,48-60.7a114.14,114.14,0,0,0,10.85-41.75,140.73,140.73,0,0,0-8.44-55.66C574.5,148,556.42,123,532.41,101.51c-24.63-22.06-55.61-40.09-88.92-54.22C409.9,33.08,373.49,22.46,336.28,15A783.26,783.26,0,0,0,212,.68a913.29,913.29,0,0,0-132.26,5q-32.34,3.56-64.14,9.4c-5.36,1-9,5.73-7.36,9.7s7.33,6.57,12.91,5.51Z" transform="translate(-0.28 -0.08)"/></svg>