<svg xmlns="http://www.w3.org/2000/svg" id="Camada_1" data-name="Camada 1" viewBox="0 0 425.96 486.9"><defs></defs><path class="cls-1" d="M162.82,493.41C96.92,476.92,46.61,427,34.57,365.53c-12.66-64.64,22.27-115.11,27-121.76,21.93-30.65,55-53.48,95.33-62.82a146,146,0,0,1,33.45-3.72c8.78,0,15,5.5,15.12,14.24q.33,38,0,76.08c-.07,9-6.08,14.16-15.87,14.55a54.46,54.46,0,0,0-52.54,49.34c-2.6,26,13.77,50,39.18,57.44a54.34,54.34,0,0,0,63.23-27.15,58.44,58.44,0,0,0,6.3-27.45c0-102.39.1-204.79-.19-307.18,0-12.24,7.09-18.47,18.18-18.21,23.44.54,46.91.15,70.37.16,10.73,0,16.13,5.2,16.48,15.77,1.52,46.85,34.72,83.92,81.11,90.46,3.91.55,7.91.42,11.86.76,8.6.74,14,6.3,14.07,14.91q.18,37.58,0,75.14c-.05,9.25-6.46,15-16,14.9a197.14,197.14,0,0,1-87.3-21.22c-1-.49-2-1-3.74-1.82v5.36c0,46.13.37,92.26-.21,138.38-.89,71.18-54.75,136-124.4,150.47-6.9,1.44-13.72,2.68-13.72,2.68s-3.11.43-6.43.7C198.58,496.15,183,495.63,162.82,493.41Z" transform="translate(-31.82 -8.88)"></path></svg>